<mxfile host="app.diagrams.net" agent="Mozilla/5.0 (Windows NT 10.0; Win64; x64) AppleWebKit/537.36 (KHTML, like Gecko) Chrome/136.0.0.0 Safari/537.36" version="27.0.5">
  <diagram name="Страница — 1" id="7orQbXHCX-NdFUFH5mpx">
    <mxGraphModel dx="3319" dy="785" grid="1" gridSize="10" guides="1" tooltips="1" connect="1" arrows="1" fold="1" page="1" pageScale="1" pageWidth="827" pageHeight="1169" math="0" shadow="0">
      <root>
        <mxCell id="0" />
        <mxCell id="1" parent="0" />
        <mxCell id="IlV3IpO0z9jPJY2mCKhL-1" value="хаб" style="rounded=0;whiteSpace=wrap;html=1;" vertex="1" parent="1">
          <mxGeometry x="-610" y="365" width="120" height="60" as="geometry" />
        </mxCell>
        <mxCell id="IlV3IpO0z9jPJY2mCKhL-2" value="мир исследование" style="whiteSpace=wrap;html=1;" vertex="1" parent="1">
          <mxGeometry x="440" y="365" width="120" height="60" as="geometry" />
        </mxCell>
        <mxCell id="IlV3IpO0z9jPJY2mCKhL-3" value="биомы" style="whiteSpace=wrap;html=1;" vertex="1" parent="1">
          <mxGeometry x="440" y="455" width="120" height="60" as="geometry" />
        </mxCell>
        <mxCell id="IlV3IpO0z9jPJY2mCKhL-4" value="монстры" style="whiteSpace=wrap;html=1;" vertex="1" parent="1">
          <mxGeometry x="610" y="610" width="120" height="60" as="geometry" />
        </mxCell>
        <mxCell id="IlV3IpO0z9jPJY2mCKhL-5" value="ресурсы" style="whiteSpace=wrap;html=1;" vertex="1" parent="1">
          <mxGeometry x="250" y="530" width="120" height="60" as="geometry" />
        </mxCell>
        <mxCell id="IlV3IpO0z9jPJY2mCKhL-6" value="Прерятствия" style="whiteSpace=wrap;html=1;" vertex="1" parent="1">
          <mxGeometry x="610" y="525" width="120" height="60" as="geometry" />
        </mxCell>
        <mxCell id="IlV3IpO0z9jPJY2mCKhL-7" value="снаряжение" style="whiteSpace=wrap;html=1;" vertex="1" parent="1">
          <mxGeometry x="-1040" y="450" width="120" height="60" as="geometry" />
        </mxCell>
        <mxCell id="IlV3IpO0z9jPJY2mCKhL-8" value="рынок" style="whiteSpace=wrap;html=1;" vertex="1" parent="1">
          <mxGeometry x="-533" y="455" width="120" height="60" as="geometry" />
        </mxCell>
        <mxCell id="IlV3IpO0z9jPJY2mCKhL-9" value="гильдия" style="whiteSpace=wrap;html=1;" vertex="1" parent="1">
          <mxGeometry x="-270" y="455" width="120" height="60" as="geometry" />
        </mxCell>
        <mxCell id="IlV3IpO0z9jPJY2mCKhL-10" value="оружие" style="rounded=0;whiteSpace=wrap;html=1;" vertex="1" parent="1">
          <mxGeometry x="-1170" y="525" width="120" height="60" as="geometry" />
        </mxCell>
        <mxCell id="IlV3IpO0z9jPJY2mCKhL-11" value="броня" style="whiteSpace=wrap;html=1;" vertex="1" parent="1">
          <mxGeometry x="-1040" y="525" width="120" height="60" as="geometry" />
        </mxCell>
        <mxCell id="IlV3IpO0z9jPJY2mCKhL-12" value="сумки" style="whiteSpace=wrap;html=1;" vertex="1" parent="1">
          <mxGeometry x="-910" y="525" width="120" height="60" as="geometry" />
        </mxCell>
        <mxCell id="IlV3IpO0z9jPJY2mCKhL-13" value="инструменты" style="whiteSpace=wrap;html=1;" vertex="1" parent="1">
          <mxGeometry x="-770" y="525" width="120" height="60" as="geometry" />
        </mxCell>
        <mxCell id="IlV3IpO0z9jPJY2mCKhL-14" value="покупка" style="whiteSpace=wrap;html=1;" vertex="1" parent="1">
          <mxGeometry x="-600" y="525" width="120" height="60" as="geometry" />
        </mxCell>
        <mxCell id="IlV3IpO0z9jPJY2mCKhL-15" value="расходники" style="whiteSpace=wrap;html=1;" vertex="1" parent="1">
          <mxGeometry x="-653" y="610" width="120" height="60" as="geometry" />
        </mxCell>
        <mxCell id="IlV3IpO0z9jPJY2mCKhL-16" value="материалы" style="whiteSpace=wrap;html=1;" vertex="1" parent="1">
          <mxGeometry x="-510" y="610" width="120" height="60" as="geometry" />
        </mxCell>
        <mxCell id="IlV3IpO0z9jPJY2mCKhL-17" value="компаньоны" style="whiteSpace=wrap;html=1;" vertex="1" parent="1">
          <mxGeometry x="-370" y="525" width="120" height="60" as="geometry" />
        </mxCell>
        <mxCell id="IlV3IpO0z9jPJY2mCKhL-18" value="задания" style="whiteSpace=wrap;html=1;" vertex="1" parent="1">
          <mxGeometry x="-240" y="525" width="120" height="60" as="geometry" />
        </mxCell>
        <mxCell id="IlV3IpO0z9jPJY2mCKhL-19" value="мастерская" style="whiteSpace=wrap;html=1;" vertex="1" parent="1">
          <mxGeometry x="-110" y="525" width="120" height="60" as="geometry" />
        </mxCell>
        <mxCell id="IlV3IpO0z9jPJY2mCKhL-20" value="болезни" style="whiteSpace=wrap;html=1;" vertex="1" parent="1">
          <mxGeometry x="740" y="610" width="120" height="60" as="geometry" />
        </mxCell>
        <mxCell id="IlV3IpO0z9jPJY2mCKhL-21" value="природа" style="whiteSpace=wrap;html=1;" vertex="1" parent="1">
          <mxGeometry x="480" y="610" width="120" height="60" as="geometry" />
        </mxCell>
      </root>
    </mxGraphModel>
  </diagram>
</mxfile>
